<mxfile host="app.diagrams.net" modified="2021-08-30T10:28:12.950Z" agent="5.0 (Macintosh; Intel Mac OS X 10_14_0) AppleWebKit/537.36 (KHTML, like Gecko) Chrome/92.0.4515.159 Safari/537.36" etag="hqC8EzTEGdpWICTiEM2G" version="14.9.6" type="github">
  <diagram id="xrIw97Q9ADusA3h81luw" name="第 1 页">
    <mxGraphModel dx="2013" dy="1722" grid="1" gridSize="10" guides="1" tooltips="1" connect="1" arrows="1" fold="1" page="1" pageScale="1" pageWidth="827" pageHeight="1169" math="0" shadow="0">
      <root>
        <mxCell id="0" />
        <mxCell id="1" parent="0" />
        <mxCell id="DaQ_yvZ6tYEb8tRcf68i-1" value="" style="rounded=0;whiteSpace=wrap;html=1;" vertex="1" parent="1">
          <mxGeometry x="70" y="110" width="670" height="80" as="geometry" />
        </mxCell>
        <mxCell id="DaQ_yvZ6tYEb8tRcf68i-2" value="sendEda(ExRequestMsg)" style="rounded=0;whiteSpace=wrap;html=1;" vertex="1" parent="1">
          <mxGeometry x="100" y="130" width="160" height="40" as="geometry" />
        </mxCell>
        <mxCell id="DaQ_yvZ6tYEb8tRcf68i-4" value="EdaReprocessService(重新处理)" style="rounded=0;whiteSpace=wrap;html=1;" vertex="1" parent="1">
          <mxGeometry x="300" y="130" width="180" height="40" as="geometry" />
        </mxCell>
        <mxCell id="DaQ_yvZ6tYEb8tRcf68i-6" value="EdaResendService（重发）" style="rounded=0;whiteSpace=wrap;html=1;" vertex="1" parent="1">
          <mxGeometry x="530" y="130" width="150" height="40" as="geometry" />
        </mxCell>
        <mxCell id="DaQ_yvZ6tYEb8tRcf68i-7" value="" style="rounded=0;whiteSpace=wrap;html=1;" vertex="1" parent="1">
          <mxGeometry x="70" y="250" width="680" height="70" as="geometry" />
        </mxCell>
        <mxCell id="DaQ_yvZ6tYEb8tRcf68i-8" value="EventExecutor" style="text;html=1;strokeColor=none;fillColor=none;align=center;verticalAlign=middle;whiteSpace=wrap;rounded=0;" vertex="1" parent="1">
          <mxGeometry x="374" y="230" width="40" height="20" as="geometry" />
        </mxCell>
        <mxCell id="DaQ_yvZ6tYEb8tRcf68i-9" value="构造event" style="rounded=0;whiteSpace=wrap;html=1;" vertex="1" parent="1">
          <mxGeometry x="100" y="265" width="120" height="40" as="geometry" />
        </mxCell>
        <mxCell id="DaQ_yvZ6tYEb8tRcf68i-10" value="sendEmsEvent" style="rounded=0;whiteSpace=wrap;html=1;" vertex="1" parent="1">
          <mxGeometry x="230" y="265" width="120" height="40" as="geometry" />
        </mxCell>
        <mxCell id="DaQ_yvZ6tYEb8tRcf68i-11" value="resendEmsEvent" style="rounded=0;whiteSpace=wrap;html=1;" vertex="1" parent="1">
          <mxGeometry x="360" y="265" width="120" height="40" as="geometry" />
        </mxCell>
        <mxCell id="DaQ_yvZ6tYEb8tRcf68i-12" value="构造事件接受流水对象" style="rounded=0;whiteSpace=wrap;html=1;" vertex="1" parent="1">
          <mxGeometry x="490" y="265" width="120" height="40" as="geometry" />
        </mxCell>
        <mxCell id="DaQ_yvZ6tYEb8tRcf68i-53" style="edgeStyle=orthogonalEdgeStyle;rounded=0;orthogonalLoop=1;jettySize=auto;html=1;exitX=0;exitY=0;exitDx=0;exitDy=0;" edge="1" parent="1" source="DaQ_yvZ6tYEb8tRcf68i-13" target="DaQ_yvZ6tYEb8tRcf68i-1">
          <mxGeometry relative="1" as="geometry" />
        </mxCell>
        <mxCell id="DaQ_yvZ6tYEb8tRcf68i-13" value="receiveEmsXml" style="rounded=0;whiteSpace=wrap;html=1;" vertex="1" parent="1">
          <mxGeometry x="620" y="265" width="120" height="40" as="geometry" />
        </mxCell>
        <mxCell id="DaQ_yvZ6tYEb8tRcf68i-14" value="Ems" style="rounded=0;whiteSpace=wrap;html=1;" vertex="1" parent="1">
          <mxGeometry x="70" y="380" width="680" height="60" as="geometry" />
        </mxCell>
        <mxCell id="DaQ_yvZ6tYEb8tRcf68i-15" value="qpid" style="rounded=0;whiteSpace=wrap;html=1;" vertex="1" parent="1">
          <mxGeometry x="65" y="490" width="680" height="60" as="geometry" />
        </mxCell>
        <mxCell id="DaQ_yvZ6tYEb8tRcf68i-39" style="edgeStyle=orthogonalEdgeStyle;rounded=0;orthogonalLoop=1;jettySize=auto;html=1;exitX=0.5;exitY=1;exitDx=0;exitDy=0;" edge="1" parent="1" source="DaQ_yvZ6tYEb8tRcf68i-16">
          <mxGeometry relative="1" as="geometry">
            <mxPoint x="-80" y="270" as="targetPoint" />
          </mxGeometry>
        </mxCell>
        <mxCell id="DaQ_yvZ6tYEb8tRcf68i-16" value="InEvent" style="rounded=0;whiteSpace=wrap;html=1;" vertex="1" parent="1">
          <mxGeometry x="-45" y="120" width="110" height="40" as="geometry" />
        </mxCell>
        <mxCell id="DaQ_yvZ6tYEb8tRcf68i-20" style="edgeStyle=orthogonalEdgeStyle;rounded=0;orthogonalLoop=1;jettySize=auto;html=1;exitX=0.5;exitY=1;exitDx=0;exitDy=0;entryX=0.5;entryY=0;entryDx=0;entryDy=0;" edge="1" parent="1" source="DaQ_yvZ6tYEb8tRcf68i-18" target="DaQ_yvZ6tYEb8tRcf68i-21">
          <mxGeometry relative="1" as="geometry">
            <mxPoint x="-80" y="350" as="targetPoint" />
          </mxGeometry>
        </mxCell>
        <mxCell id="DaQ_yvZ6tYEb8tRcf68i-18" value="BaseEvent" style="rounded=0;whiteSpace=wrap;html=1;" vertex="1" parent="1">
          <mxGeometry x="-150" y="270" width="140" height="40" as="geometry" />
        </mxCell>
        <mxCell id="DaQ_yvZ6tYEb8tRcf68i-23" style="edgeStyle=orthogonalEdgeStyle;rounded=0;orthogonalLoop=1;jettySize=auto;html=1;exitX=0.5;exitY=1;exitDx=0;exitDy=0;" edge="1" parent="1" source="DaQ_yvZ6tYEb8tRcf68i-21">
          <mxGeometry relative="1" as="geometry">
            <mxPoint x="-80" y="430" as="targetPoint" />
          </mxGeometry>
        </mxCell>
        <mxCell id="DaQ_yvZ6tYEb8tRcf68i-21" value="EmsEventHandler.handleEmsEvent" style="rounded=0;whiteSpace=wrap;html=1;" vertex="1" parent="1">
          <mxGeometry x="-177.5" y="340" width="195" height="50" as="geometry" />
        </mxCell>
        <mxCell id="DaQ_yvZ6tYEb8tRcf68i-30" style="edgeStyle=orthogonalEdgeStyle;rounded=0;orthogonalLoop=1;jettySize=auto;html=1;" edge="1" parent="1" source="DaQ_yvZ6tYEb8tRcf68i-24">
          <mxGeometry relative="1" as="geometry">
            <mxPoint x="-69" y="520" as="targetPoint" />
          </mxGeometry>
        </mxCell>
        <mxCell id="DaQ_yvZ6tYEb8tRcf68i-24" value="serviceDispatchController&lt;br&gt;.execte(ServiceId,params)" style="rounded=0;whiteSpace=wrap;html=1;fillColor=#f8cecc;strokeColor=#b85450;" vertex="1" parent="1">
          <mxGeometry x="-177.5" y="430" width="217" height="40" as="geometry" />
        </mxCell>
        <mxCell id="DaQ_yvZ6tYEb8tRcf68i-25" value="" style="shape=singleArrow;direction=south;whiteSpace=wrap;html=1;arrowWidth=0.16666666666666666;arrowSize=0.5;" vertex="1" parent="1">
          <mxGeometry x="380" y="200" width="60" height="30" as="geometry" />
        </mxCell>
        <mxCell id="DaQ_yvZ6tYEb8tRcf68i-26" value="" style="shape=singleArrow;direction=south;whiteSpace=wrap;html=1;arrowWidth=0.16666666666666666;arrowSize=0.5;" vertex="1" parent="1">
          <mxGeometry x="374" y="340" width="60" height="30" as="geometry" />
        </mxCell>
        <mxCell id="DaQ_yvZ6tYEb8tRcf68i-27" value="" style="shape=singleArrow;direction=south;whiteSpace=wrap;html=1;arrowWidth=0.16666666666666666;arrowSize=0.5;" vertex="1" parent="1">
          <mxGeometry x="374" y="450" width="60" height="30" as="geometry" />
        </mxCell>
        <mxCell id="DaQ_yvZ6tYEb8tRcf68i-28" value="receive方法" style="text;html=1;align=center;verticalAlign=middle;resizable=0;points=[];autosize=1;strokeColor=none;" vertex="1" parent="1">
          <mxGeometry x="-109" y="-20" width="80" height="20" as="geometry" />
        </mxCell>
        <mxCell id="DaQ_yvZ6tYEb8tRcf68i-31" value="记录recvFlow" style="rounded=0;whiteSpace=wrap;html=1;" vertex="1" parent="1">
          <mxGeometry x="-177" y="520" width="217" height="50" as="geometry" />
        </mxCell>
        <mxCell id="DaQ_yvZ6tYEb8tRcf68i-34" style="edgeStyle=orthogonalEdgeStyle;rounded=0;orthogonalLoop=1;jettySize=auto;html=1;entryX=0.5;entryY=0;entryDx=0;entryDy=0;" edge="1" parent="1" source="DaQ_yvZ6tYEb8tRcf68i-33" target="DaQ_yvZ6tYEb8tRcf68i-16">
          <mxGeometry relative="1" as="geometry" />
        </mxCell>
        <mxCell id="DaQ_yvZ6tYEb8tRcf68i-35" value="sysEvtCode" style="edgeLabel;html=1;align=center;verticalAlign=middle;resizable=0;points=[];" vertex="1" connectable="0" parent="DaQ_yvZ6tYEb8tRcf68i-34">
          <mxGeometry x="-0.3" y="-3" relative="1" as="geometry">
            <mxPoint x="-21" y="-23" as="offset" />
          </mxGeometry>
        </mxCell>
        <mxCell id="DaQ_yvZ6tYEb8tRcf68i-42" value="getInEventMeta" style="edgeLabel;html=1;align=center;verticalAlign=middle;resizable=0;points=[];" vertex="1" connectable="0" parent="DaQ_yvZ6tYEb8tRcf68i-34">
          <mxGeometry x="0.6414" y="-2" relative="1" as="geometry">
            <mxPoint y="6" as="offset" />
          </mxGeometry>
        </mxCell>
        <mxCell id="DaQ_yvZ6tYEb8tRcf68i-37" style="edgeStyle=orthogonalEdgeStyle;rounded=0;orthogonalLoop=1;jettySize=auto;html=1;entryX=0.5;entryY=0;entryDx=0;entryDy=0;fillColor=#fff2cc;strokeColor=#d6b656;" edge="1" parent="1" source="DaQ_yvZ6tYEb8tRcf68i-33" target="DaQ_yvZ6tYEb8tRcf68i-36">
          <mxGeometry relative="1" as="geometry" />
        </mxCell>
        <mxCell id="DaQ_yvZ6tYEb8tRcf68i-41" value="receiveEmsXml" style="edgeLabel;html=1;align=center;verticalAlign=middle;resizable=0;points=[];" vertex="1" connectable="0" parent="DaQ_yvZ6tYEb8tRcf68i-37">
          <mxGeometry x="0.6465" y="2" relative="1" as="geometry">
            <mxPoint y="1" as="offset" />
          </mxGeometry>
        </mxCell>
        <mxCell id="DaQ_yvZ6tYEb8tRcf68i-33" value="EdaReceiver" style="rounded=0;whiteSpace=wrap;html=1;" vertex="1" parent="1">
          <mxGeometry x="-140" y="20" width="130" height="40" as="geometry" />
        </mxCell>
        <mxCell id="DaQ_yvZ6tYEb8tRcf68i-38" style="edgeStyle=orthogonalEdgeStyle;rounded=0;orthogonalLoop=1;jettySize=auto;html=1;exitX=0.5;exitY=1;exitDx=0;exitDy=0;entryX=0.5;entryY=0;entryDx=0;entryDy=0;" edge="1" parent="1" source="DaQ_yvZ6tYEb8tRcf68i-36" target="DaQ_yvZ6tYEb8tRcf68i-18">
          <mxGeometry relative="1" as="geometry" />
        </mxCell>
        <mxCell id="DaQ_yvZ6tYEb8tRcf68i-36" value="eventXml" style="rounded=0;whiteSpace=wrap;html=1;" vertex="1" parent="1">
          <mxGeometry x="-177.5" y="120" width="110" height="40" as="geometry" />
        </mxCell>
        <mxCell id="DaQ_yvZ6tYEb8tRcf68i-40" value="dataTransformManager.transform()" style="text;html=1;strokeColor=none;fillColor=none;align=center;verticalAlign=middle;whiteSpace=wrap;rounded=0;" vertex="1" parent="1">
          <mxGeometry x="-100" y="230" width="40" height="20" as="geometry" />
        </mxCell>
        <mxCell id="DaQ_yvZ6tYEb8tRcf68i-45" value="sysEvtCode" style="edgeStyle=orthogonalEdgeStyle;rounded=0;orthogonalLoop=1;jettySize=auto;html=1;exitX=0.5;exitY=1;exitDx=0;exitDy=0;" edge="1" parent="1" source="DaQ_yvZ6tYEb8tRcf68i-43">
          <mxGeometry relative="1" as="geometry">
            <mxPoint x="945" y="140" as="targetPoint" />
          </mxGeometry>
        </mxCell>
        <mxCell id="DaQ_yvZ6tYEb8tRcf68i-43" value="DefaultEventExecutor.sendEvent&lt;br&gt;(sysEvtCode,EventBody)" style="rounded=0;whiteSpace=wrap;html=1;" vertex="1" parent="1">
          <mxGeometry x="850" y="40" width="190" height="60" as="geometry" />
        </mxCell>
        <mxCell id="DaQ_yvZ6tYEb8tRcf68i-47" style="edgeStyle=orthogonalEdgeStyle;rounded=0;orthogonalLoop=1;jettySize=auto;html=1;exitX=0.5;exitY=1;exitDx=0;exitDy=0;entryX=0.5;entryY=0;entryDx=0;entryDy=0;" edge="1" parent="1" source="DaQ_yvZ6tYEb8tRcf68i-46" target="DaQ_yvZ6tYEb8tRcf68i-48">
          <mxGeometry relative="1" as="geometry">
            <mxPoint x="945" y="230" as="targetPoint" />
          </mxGeometry>
        </mxCell>
        <mxCell id="DaQ_yvZ6tYEb8tRcf68i-49" value="event/mappingId" style="edgeLabel;html=1;align=center;verticalAlign=middle;resizable=0;points=[];" vertex="1" connectable="0" parent="DaQ_yvZ6tYEb8tRcf68i-47">
          <mxGeometry x="-0.2" relative="1" as="geometry">
            <mxPoint as="offset" />
          </mxGeometry>
        </mxCell>
        <mxCell id="DaQ_yvZ6tYEb8tRcf68i-46" value="OutEbentMeta" style="rounded=0;whiteSpace=wrap;html=1;" vertex="1" parent="1">
          <mxGeometry x="850" y="140" width="190" height="50" as="geometry" />
        </mxCell>
        <mxCell id="DaQ_yvZ6tYEb8tRcf68i-50" style="edgeStyle=orthogonalEdgeStyle;rounded=0;orthogonalLoop=1;jettySize=auto;html=1;exitX=0.5;exitY=1;exitDx=0;exitDy=0;" edge="1" parent="1" source="DaQ_yvZ6tYEb8tRcf68i-48">
          <mxGeometry relative="1" as="geometry">
            <mxPoint x="945" y="340" as="targetPoint" />
          </mxGeometry>
        </mxCell>
        <mxCell id="DaQ_yvZ6tYEb8tRcf68i-48" value="eventXml" style="rounded=0;whiteSpace=wrap;html=1;" vertex="1" parent="1">
          <mxGeometry x="850" y="240" width="190" height="60" as="geometry" />
        </mxCell>
        <mxCell id="DaQ_yvZ6tYEb8tRcf68i-52" style="edgeStyle=orthogonalEdgeStyle;rounded=0;orthogonalLoop=1;jettySize=auto;html=1;exitX=0.5;exitY=1;exitDx=0;exitDy=0;" edge="1" parent="1" source="DaQ_yvZ6tYEb8tRcf68i-51">
          <mxGeometry relative="1" as="geometry">
            <mxPoint x="950" y="430" as="targetPoint" />
          </mxGeometry>
        </mxCell>
        <mxCell id="DaQ_yvZ6tYEb8tRcf68i-55" value="sendFlow" style="edgeLabel;html=1;align=center;verticalAlign=middle;resizable=0;points=[];" vertex="1" connectable="0" parent="DaQ_yvZ6tYEb8tRcf68i-52">
          <mxGeometry relative="1" as="geometry">
            <mxPoint as="offset" />
          </mxGeometry>
        </mxCell>
        <mxCell id="DaQ_yvZ6tYEb8tRcf68i-51" value="构造EdaSendFlowPo" style="rounded=0;whiteSpace=wrap;html=1;" vertex="1" parent="1">
          <mxGeometry x="850" y="340" width="200" height="50" as="geometry" />
        </mxCell>
        <mxCell id="DaQ_yvZ6tYEb8tRcf68i-56" style="edgeStyle=orthogonalEdgeStyle;rounded=0;orthogonalLoop=1;jettySize=auto;html=1;exitX=0.5;exitY=1;exitDx=0;exitDy=0;entryX=0.5;entryY=0;entryDx=0;entryDy=0;" edge="1" parent="1" source="DaQ_yvZ6tYEb8tRcf68i-54" target="DaQ_yvZ6tYEb8tRcf68i-58">
          <mxGeometry relative="1" as="geometry">
            <mxPoint x="950" y="530" as="targetPoint" />
          </mxGeometry>
        </mxCell>
        <mxCell id="DaQ_yvZ6tYEb8tRcf68i-57" value="SendEventProcessChain.startProcess()" style="edgeLabel;html=1;align=center;verticalAlign=middle;resizable=0;points=[];" vertex="1" connectable="0" parent="DaQ_yvZ6tYEb8tRcf68i-56">
          <mxGeometry x="-0.16" y="-1" relative="1" as="geometry">
            <mxPoint as="offset" />
          </mxGeometry>
        </mxCell>
        <mxCell id="DaQ_yvZ6tYEb8tRcf68i-54" value="McEventSender.sendEvent(xml)" style="rounded=0;whiteSpace=wrap;html=1;" vertex="1" parent="1">
          <mxGeometry x="850" y="435" width="200" height="45" as="geometry" />
        </mxCell>
        <mxCell id="DaQ_yvZ6tYEb8tRcf68i-58" value="connecton.sendMsg()" style="rounded=0;whiteSpace=wrap;html=1;" vertex="1" parent="1">
          <mxGeometry x="850" y="540" width="200" height="40" as="geometry" />
        </mxCell>
        <mxCell id="DaQ_yvZ6tYEb8tRcf68i-59" value="ems" style="text;html=1;strokeColor=none;fillColor=none;align=center;verticalAlign=middle;whiteSpace=wrap;rounded=0;" vertex="1" parent="1">
          <mxGeometry x="1060" y="550" width="40" height="20" as="geometry" />
        </mxCell>
      </root>
    </mxGraphModel>
  </diagram>
</mxfile>
